<svg height="478pt" viewBox="0 -3 478.20614 478" width="478pt" xmlns="http://www.w3.org/2000/svg"><path d="m438.207031 408.101562c20.640625-59.171874 31.453125-121.328124 32-184 0-96-50.601562-216-232-216-168 0-280 144-208 456zm0 0" fill="#dd3e46"/><path d="m342.207031 184.101562c-24-32-64-48-136 0-53.433593 35.617188-134.402343 1.121094-181.96875-16.0625-16.878906 55.40625-21.351562 125.664063-9.695312 211.425782 54.402343-17.96875 110.636719-29.828125 167.664062-35.363282 216-24 180.367188-132.847656 160-160zm0 0" fill="#5a6470"/><path d="m238.207031 8.101562c-90.882812 0-165.289062 42.234376-203.136719 130.3125l83.136719 29.6875s90.277344-172.984374 314.566407-74.070312c-33.855469-49.128906-94.144532-85.929688-194.566407-85.929688zm0 0" fill="#cfdfe8"/><g fill="#931c2e"><path d="m390.207031 264.101562h48v16h-48zm0 0"/><path d="m398.207031 232.101562h48v16h-48zm0 0"/><path d="m398.207031 200.101562h48v16h-48zm0 0"/></g><path d="m451.628906 364.101562-428.917968 64.328126c2.253906 11.671874 4.6875 23.496093 7.496093 35.671874l408-56c5.214844-14.429687 9.695313-29.113281 13.421875-44zm0 0" fill="#5a6470"/><path d="m326.207031 232.101562c0 26.511719-21.492187 48-48 48-26.511719 0-48-21.488281-48-48 0-26.507812 21.488281-48 48-48 26.507813 0 48 21.492188 48 48zm0 0" fill="#cfdfe8"/><path d="m294.207031 232.101562c0 8.839844-7.164062 16-16 16-8.835937 0-16-7.160156-16-16 0-8.835937 7.164063-16 16-16 8.835938 0 16 7.164063 16 16zm0 0" fill="#5a6470"/><path d="m206.207031 272.101562c-8-40-26.554687-36.589843-64-40-43.667969-3.890624-86.136719-16.359374-124.976562-36.695312-9.652344 49.558594-11.8125 100.285156-6.398438 150.480469 42.980469-12.308594 86.929688-20.933594 131.375-25.785157 44.039063-4.40625 72-8 64-48zm0 0" fill="#92cdde"/><path d="m32.550781 277.761719 11.3125-11.3125 24.003907 24.003906-11.3125 11.3125zm0 0" fill="#f4f4e6"/><path d="m64.546875 277.761719 11.316406-11.316407 32 32.003907-11.3125 11.3125zm0 0" fill="#f4f4e6"/><path d="m85.902344 154.304688-15.390625-4.402344c13.152343-39.070313 40.054687-72.027344 75.695312-92.742188l7.933594 13.886719c-31.925781 18.75-56.121094 48.269531-68.238281 83.257813zm0 0" fill="#5a6470"/><path d="m278.207031 256.101562c13.253907 0 24-10.742187 24-24 0-13.253906-10.746093-24-24-24-13.253906 0-24 10.746094-24 24 0 13.257813 10.746094 24 24 24zm0-32c4.417969 0 8 3.582032 8 8 0 4.417969-3.582031 8-8 8s-8-3.582031-8-8c0-4.417968 3.582031-8 8-8zm0 0"/><path d="m278.207031 288.101562c30.925781 0 56-25.070312 56-56 0-30.925781-25.074219-56-56-56-30.929687 0-56 25.074219-56 56 .035157 30.914063 25.085938 55.964844 56 56zm0-96c22.089844 0 40 17.910157 40 40 0 22.09375-17.910156 40-40 40-22.09375 0-40-17.90625-40-40 .027344-22.078124 17.917969-39.972656 40-40zm0 0"/><path d="m32.550781 277.761719 11.3125-11.3125 24.003907 24.003906-11.3125 11.3125zm0 0"/><path d="m64.546875 277.761719 11.316406-11.316407 32 32.003907-11.3125 11.3125zm0 0"/><path d="m390.207031 264.101562h48v16h-48zm0 0"/><path d="m398.207031 232.101562h48v16h-48zm0 0"/><path d="m398.207031 200.101562h48v16h-48zm0 0"/><path d="m238.207031.101562c-74.832031 0-136.402343 27.671876-178.050781 80-64.285156 80.800782-77.34375 214.234376-37.75 385.800782.839844 3.632812 4.074219 6.203125 7.800781 6.199218.367188 0 .730469-.023437 1.09375-.070312l408-56c2.902344-.394531 5.355469-2.339844 6.402344-5.070312 21.082031-60.0625 32.066406-123.203126 32.503906-186.859376 0-52.542968-17.304687-224-240-224zm-165.527343 89.984376c38.503906-48.382813 95.742187-73.984376 165.527343-73.984376 82.976563 0 135.335938 25.402344 168.375 58.992188-184.0625-65.496094-273.519531 54.351562-291.871093 83.265625l-26.863282-9.601563c12.792969-32.601562 36.160156-59.96875 66.359375-77.710937l-8-13.886719c-33.570312 19.566406-59.484375 49.972656-73.488281 86.214844l-26.863281-9.601562c7.21875-15.550782 16.222656-30.210938 26.824219-43.6875zm-39.761719 89.65625c49.769531 18.402343 124.992187 46.175781 177.726562 11.015624 56.785157-37.855468 97.722657-38.445312 125.160157-1.855468 14.75 20.851562 17.941406 47.753906 8.472656 71.472656-17.152344 39.632812-73.496094 65.839844-162.953125 75.777344-54.339844 5.371094-107.992188 16.277344-160.117188 32.542968-.714843-5.71875-1.234375-11.296874-1.800781-16.902343 40.492188-11.226563 81.828125-19.148438 123.601562-23.691407 29.054688-2.902343 54.160157-5.414062 65.964844-21.375 6.867188-10.765624 8.71875-23.984374 5.074219-36.222656-8.320313-41.601562-29.863281-43.199218-59.6875-45.472656-3.601563-.28125-7.402344-.558594-11.425781-.929688-40.59375-3.683593-80.144532-14.882812-116.648438-33.023437.992188-4.261719 2.03125-8.488281 3.199219-12.605469zm-9.910157 27.5625c37.171876 18.027343 77.316407 29.140624 118.46875 32.796874 4.121094.371094 8 .664063 11.679688.945313 29.371094 2.207031 39.265625 2.953125 45.210938 32.65625 2.539062 7.808594 1.71875 16.324219-2.265626 23.503906-7.582031 10.257813-30.464843 12.542969-54.695312 14.96875-41.722656 4.519531-83.019531 12.359375-123.496094 23.4375-3.824218-42.808593-2.113281-85.9375 5.097656-128.308593zm409.351563 193.597656-395.976563 54.28125c-1.511718-6.800782-2.824218-13.433594-4.167968-20.097656l408.457031-61.261719c-3.515625 12.542969-6.59375 21.933593-8.355469 27.015625zm12.796875-43.855469-416 62.398437c-2.183594-11.75-4-23.246093-5.671875-34.574218 51.949219-16.328125 105.425781-27.320313 159.601563-32.816406 96.871093-10.769532 156.039062-39.472657 175.921874-85.328126 11.566407-29.019531 7.652344-61.925781-10.402343-87.421874-33.085938-44.128907-82.496094-44.746094-146.839844-1.859376-45.960937 30.65625-116.574219 4.546876-163.3125-12.710937l-4.269531-1.597656c1.671875-5.007813 3.460937-9.898438 5.359375-14.664063l76 27.132813c3.753906 1.34375 7.925781-.289063 9.773437-3.824219 3.546875-6.757812 89.144532-163.757812 301.851563-71.453125 23.246093 37.070313 35.40625 80.019531 35.039062 123.773437-.382812 44.816407-6.117187 89.425782-17.089843 132.882813zm0 0"/></svg>