<svg id="Layer_1" enable-background="new 0 0 511.881 511.881" height="512" viewBox="0 0 511.881 511.881" width="512" xmlns="http://www.w3.org/2000/svg"><g><g><path d="m418.76 423.776c-51.347 0-93.121-41.774-93.121-93.121s41.774-93.121 93.121-93.121 93.121 41.774 93.121 93.121-41.774 93.121-93.121 93.121zm0-156.241c-34.805 0-63.121 28.316-63.121 63.121s28.316 63.121 63.121 63.121 63.121-28.316 63.121-63.121-28.316-63.121-63.121-63.121z" fill="#07485e"/></g><g><path d="m418.76 423.776c-51.347 0-93.121-41.774-93.121-93.121s41.774-93.121 93.121-93.121 93.121 41.774 93.121 93.121-41.774 93.121-93.121 93.121zm0-156.241c-34.805 0-63.121 28.316-63.121 63.121s28.316 63.121 63.121 63.121 63.121-28.316 63.121-63.121-28.316-63.121-63.121-63.121z" fill="#04303e"/></g><g><path d="m93.13 423.795c-51.352 0-93.13-41.778-93.13-93.13s41.778-93.13 93.13-93.13 93.13 41.778 93.13 93.13-41.778 93.13-93.13 93.13zm0-156.26c-34.81 0-63.13 28.32-63.13 63.13s28.32 63.13 63.13 63.13 63.13-28.32 63.13-63.13-28.32-63.13-63.13-63.13z" fill="#07485e"/></g><path d="m433.452 146.78v-4.768c0-29.735-24.191-53.926-53.926-53.926h-72.376l36.312 92.243h-173.494l11.588-32.316-28.239-10.126-66.607 185.748 12.991 12.988h163.132l97.522-113.38 44.447 112.907 27.915-10.989-81.517-207.075h28.324c13.193 0 23.926 10.733 23.926 23.926v4.768zm-251.67 63.549h150.111l-75.826 88.155zm-27.544 13.868 69.457 82.426h-99.014z" fill="#ff9f00"/><path d="m433.452 146.78v-4.768c0-29.735-24.191-53.926-53.926-53.926h-72.376l36.312 92.243h-87.511v30h75.942l-75.826 88.155-.116-.138v38.277h6.882l97.522-113.38 44.447 112.907 27.915-10.989-81.517-207.075h28.324c13.193 0 23.926 10.733 23.926 23.926v4.768z" fill="#ff7816"/><g><path d="m130.035 127.949h78.893v30h-78.893z" fill="#07485e"/></g></g></svg>