<?xml version="1.0" encoding="iso-8859-1"?>
<!-- Generator: Adobe Illustrator 19.0.0, SVG Export Plug-In . SVG Version: 6.00 Build 0)  -->
<svg version="1.1" id="Capa_1" xmlns="http://www.w3.org/2000/svg" xmlns:xlink="http://www.w3.org/1999/xlink" x="0px" y="0px"
	 viewBox="0 0 454.8 454.8" style="enable-background:new 0 0 454.8 454.8;" xml:space="preserve">
<g>
	<g>
		<path d="M386.4,97.09c-41.2-26.8-97.6-43.2-159.2-43.2c-61.6,0-118,16.4-158.8,43.2C26,124.69,0,163.09,0,206.29
			c0,43.2,26,81.6,68.4,109.6c40.8,26.4,97.2,42.8,158.8,42.8c3.6,0,8.8-0.4,14-0.4c-9.6,8-20,14-26.8,18c-3.6,2-6.4,3.6-8,5.2
			c-2.4,2-4,4.8-4.4,8c-0.8,6.8,8.8,15.6,28.4,9.2c8-2.8,19.6-6.8,33.2-12.4c69.6-28,191.2-90.4,191.2-179.6
			C454.8,163.49,428.8,125.09,386.4,97.09z M276.8,353.89c0.8-1.2,1.6-2.8,2.4-4.4c3.2-6,0.8-13.2-5.2-16c-2-1.2-4.4-1.6-6.8-1.2
			c-2.8,0.4-28,2.4-40.4,2.4c-57.2,0-108.8-14.8-145.6-39.2c-35.6-23.2-57.6-54.8-57.6-89.2c0.4-34.4,22.4-66,58-89.2
			c37.2-24.4,88.8-39.2,145.6-39.2c57.2,0,108.8,14.8,145.6,39.2c35.6,23.2,57.6,54.8,57.6,89.2
			C430.4,273.09,341.2,325.09,276.8,353.89z"/>
	</g>
</g>
<g>
	<g>
		<path d="M136.8,181.49c-0.4-0.4-0.4-0.4-0.8-0.8c-6-5.6-14.4-9.6-23.2-9.6c-8.8,0-16.4,3.2-22.4,8.8c-0.4,0.4-0.4,0.4-0.8,0.8
			c-6,6-9.6,14-9.6,23.2c0,8.8,3.2,16.4,8.8,22.4c0,0.4,0.4,0.8,0.8,0.8c6,6,14,9.6,23.2,9.6c8.8,0,16.4-3.2,22.4-8.8
			c0.4-0.4,0.4-0.4,0.8-0.8c6-6,9.6-14,9.6-23.2C145.6,195.09,142.4,187.49,136.8,181.49z M119.2,210.69l-0.4,0.4
			c-1.6,1.2-3.6,2-6,2c-2.4,0-4.8-0.8-6.4-2.4l-0.4-0.4c-1.2-1.6-2-3.6-2-6c0-2.8,0.8-4.8,2.4-6.4l0.4-0.4c1.6-1.2,3.6-2,6-2
			c2.4,0,4.8,0.8,6.4,2.4l0.4,0.4c1.2,1.6,2,3.6,2,6C121.6,206.69,120.8,209.09,119.2,210.69z"/>
	</g>
</g>
<g>
	<g>
		<path d="M250.4,180.69c-6-5.6-14-9.6-23.2-9.6s-17.2,3.6-23.2,9.6s-9.6,14-9.6,23.2s3.6,17.6,9.6,23.2c6,6,14,9.6,23.2,9.6
			c8.8,0,16.4-3.2,22.4-8.8c0.4-0.4,0.4-0.4,0.8-0.8c6-6,9.6-14,9.6-23.2C260,194.69,256.4,186.69,250.4,180.69z M233.6,210.69
			l-0.4,0.4c-1.6,1.2-3.6,2-6,2c-2.4,0-4.8-0.8-6.4-2.4c-1.6-1.6-2.4-4-2.4-6.4c0-2.8,0.8-4.8,2.4-6.4c1.6-1.6,4-2.4,6.4-2.4
			c2.4,0,4.8,0.8,6.4,2.4c1.6,1.6,2.4,4,2.4,6.4C236,206.69,235.2,209.09,233.6,210.69z"/>
	</g>
</g>
<g>
	<g>
		<path d="M364.8,180.69c-6-5.6-14-9.6-23.2-9.6s-17.2,3.6-23.2,9.6s-9.6,14-9.6,23.2s3.6,17.2,9.6,23.2s14.4,9.6,23.2,9.6
			s16.4-3.2,22.4-8.8c0.4-0.4,0.4-0.4,0.8-0.8c6-6,9.6-14,9.6-23.2C374.4,194.69,370.8,186.69,364.8,180.69z M348.4,210.69l-0.4,0.4
			c-1.6,1.2-3.6,2-6,2c-2.4,0-4.8-0.8-6.4-2.4c-1.6-1.6-2.4-4-2.4-6.4c-0.4-2.8,0.8-4.8,2.4-6.4c1.6-1.6,4-2.4,6.4-2.4
			c2.4,0,4.8,0.8,6.4,2.4c1.6,1.6,2.4,4,2.4,6.4C350.8,206.69,350,209.09,348.4,210.69z"/>
	</g>
</g>
<g>
</g>
<g>
</g>
<g>
</g>
<g>
</g>
<g>
</g>
<g>
</g>
<g>
</g>
<g>
</g>
<g>
</g>
<g>
</g>
<g>
</g>
<g>
</g>
<g>
</g>
<g>
</g>
<g>
</g>
</svg>
