<svg viewBox="0 1 511 511.99901" xmlns="http://www.w3.org/2000/svg"><path d="m449.316406 87.675781c-40.304687-46.152343-95.722656-76.359375-156.054687-85.046875-4.097657-.589844-7.898438 2.253906-8.492188 6.351563-.589843 4.097656 2.253907 7.902343 6.355469 8.492187 56.78125 8.179688 108.949219 36.613282 146.894531 80.066406 38.304688 43.871094 59.402344 100.144532 59.402344 158.460938 0 64.375-25.0625 124.894531-70.574219 170.414062-45.515625 45.519532-106.023437 70.589844-170.386718 70.589844-63.261719 0-123.03125-24.335937-168.292969-68.519531-2.964844-2.894531-7.710938-2.835937-10.601563.128906-2.894531 2.960938-2.835937 7.710938.125 10.601563 48.082032 46.9375 111.570313 72.785156 178.769532 72.785156 68.371093 0 132.648437-26.628906 180.992187-74.984375 48.34375-48.347656 74.96875-112.636719 74.96875-181.015625 0-61.945312-22.410156-121.722656-63.105469-168.324219zm0 0"/><path d="m15.496094 256c0-64.375 25.066406-124.894531 70.578125-170.414062 45.511719-45.519532 106.023437-70.589844 170.386719-70.589844 4.140624 0 7.496093-3.355469 7.496093-7.496094s-3.355469-7.5-7.496093-7.5c-68.371094 0-132.648438 26.628906-180.992188 74.980469-48.34375 48.351562-74.96875 112.640625-74.96875 181.019531 0 55.5625 17.496094 108.410156 50.601562 152.835938 1.472657 1.976562 3.730469 3.015624 6.019532 3.015624 1.554687 0 3.128906-.480468 4.472656-1.484374 3.320312-2.472657 4.007812-7.171876 1.53125-10.492188-31.15625-41.816406-47.628906-91.566406-47.628906-143.875zm0 0"/><path d="m200.066406 214.414062h-43.738281c-11.78125 0-21.363281 9.582032-21.363281 21.363282v131.320312c0 11.78125 9.582031 21.363282 21.363281 21.363282h43.738281c7.53125 0 14.152344-3.929688 17.957032-9.832032.109374 0 .214843.015625.324218.015625h120.171875c11.96875 0 21.96875-8.585937 23.777344-20.417969 1.375-9 3.273437-21.457031 5.265625-34.773437.617188-4.097656-2.207031-7.914063-6.304688-8.527344-4.097656-.613281-7.914062 2.207031-8.527343 6.304688-1.992188 13.300781-3.882813 25.742187-5.257813 34.730469-.679687 4.453124-4.445312 7.6875-8.953125 7.6875h-117.089843v-126.492188l62.742187-63.464844c.320313-.324218.609375-.675781.863281-1.050781 2.261719-3.320313 9.640625-14.738281 9.765625-22.347656 0-.039063 0-.082031 0-.121094v-1.738281c0-5.046875 3.796875-9.226563 8.6875-9.824219 4.410157 1.84375 10.441407 6.152344 11.105469 27.148437v1.019532c0 .472656-.035156.957031-.105469 1.445312-.0625.433594-.089843.875-.074219 1.3125.125 3.894532.226563 24.648438-10.136718 50.578125-.925782 2.3125-.644532 4.929688.753906 6.988281 1.394531 2.0625 3.71875 3.292969 6.207031 3.292969h34.722657c9.371093 0 16.996093 7.628907 16.996093 17-.003906 1.203125-.542969 7.652344-5.445312 41.46875-.59375 4.097657 2.246093 7.902344 6.347656 8.496094s7.902344-2.246094 8.496094-6.34375c5.601562-38.652344 5.601562-42.132813 5.601562-43.621094 0-17.644531-14.355469-31.996093-31.996093-31.996093h-24.035157c7.242188-22.273438 7.632813-39.652344 7.496094-45.726563.113281-.964844.167969-1.9375.167969-2.894531v-1.140625c0-.074219 0-.152344 0-.226563-.710938-23.183594-7.582032-35.953125-22.28125-41.40625-.835938-.308594-1.71875-.46875-2.609375-.46875-13.726563 0-24.894531 11.171875-24.894531 24.898438v1.621094c-.144532 2.03125-3.324219 8.371093-6.792969 13.59375l-57.144531 57.800781c-3.914063-4.308594-9.539063-7.035157-15.800782-7.035157zm6.363282 152.683594c0 3.511719-2.855469 6.367188-6.363282 6.367188h-43.738281c-3.511719 0-6.367187-2.855469-6.367187-6.367188v-131.320312c0-3.511719 2.855468-6.367188 6.367187-6.367188h43.738281c3.507813 0 6.363282 2.855469 6.363282 6.367188zm0 0"/></svg>