<svg id="Capa_1" enable-background="new 0 0 512 512" height="512" viewBox="0 0 512 512" width="512" xmlns="http://www.w3.org/2000/svg"><g><path d="m480.107 335.732v-79.732l-244.123-20.016 20.016 276.016h47.839v-32.425c19.201-4.793 37.299-12.399 53.828-22.361l22.974 22.974 67.655-67.655-22.974-22.974c9.961-16.528 17.567-34.626 22.36-53.827z" fill="#607882"/><path d="m31.893 256v79.732h32.426c4.794 19.201 12.399 37.299 22.36 53.827l-22.974 22.974 67.655 67.655 22.974-22.974c16.528 9.962 34.627 17.567 53.828 22.361v32.425h47.838v-276.016z" fill="#87a0af"/><path d="m380.516 255.994-144.532-20.013 20.016 180.418c70.972 0 128.506-57.534 128.506-128.506 0-11.012-1.385-21.7-3.99-31.899z" fill="#e1ebf0"/><path d="m131.482 256c-2.604 10.198-3.989 20.884-3.989 31.893 0 70.972 57.534 128.506 128.506 128.506v-180.418z" fill="#fff5f5"/><path d="m345.227 256-109.243-20.016 20.016 146.68c52.257 0 94.772-42.515 94.772-94.771 0-10.899-1.901-21.699-5.545-31.893z" fill="#04303e"/><path d="m166.773 256c-3.644 10.194-5.545 20.994-5.545 31.893 0 52.257 42.515 94.771 94.772 94.771v-146.68z" fill="#09607d"/><path d="m319.785 32.882h-63.785l-20.016 159.952h243.196c-8.547-84.164-75.315-151.118-159.395-159.952z" fill="#ffb655"/><path d="m192.213 32.882c-84.08 8.834-150.848 75.787-159.395 159.952h223.182v-159.952z" fill="#ffda44"/><path d="m319.785 182.207v-182.207h-63.785l-20.016 239.119 276.016-20.016v-36.896z" fill="#ffda44"/><path d="m192.215 0v182.207h-192.215v36.896l256 20.016v-239.119z" fill="#fff68e"/><path d="m256 219.103-10.008 18.449 10.008 18.448h256v-36.897z" fill="#ffb655"/><path d="m0 219.103h256v36.897h-256z" fill="#ffda44"/></g></svg>