<svg id="Capa_1" enable-background="new 0 0 503.021 503.021" height="512" viewBox="0 0 503.021 503.021" width="512" xmlns="http://www.w3.org/2000/svg"><g><circle cx="260.873" cy="105.508" fill="#ade194" r="67.956"/><path d="m229.533 105.508c0-31.185 21.014-57.445 49.648-65.44-5.827-1.627-11.962-2.516-18.308-2.516-37.531 0-67.956 30.425-67.956 67.956s30.425 67.957 67.956 67.957c6.346 0 12.481-.889 18.308-2.516-28.634-7.996-49.648-34.256-49.648-65.441z" fill="#97da7b"/><g><g id="XMLID_559_"><g><path d="m386.204 212.654c0-6.91 2.8-13.16 7.33-17.68 4.52-4.53 10.78-7.33 17.68-7.33 13.82 0 25.02 11.2 25.02 25.01v46.11 154.85c0 5.145-1.363 10.198-3.951 14.644l-12.049 20.706v44.454c0 4.791-3.866 8.684-8.656 8.719l-123.422.885c-4.84.035-8.781-3.879-8.781-8.719v-37.538l-50.96-47.39c-2.81-2.62-5.14-5.7-6.9-9.11l-60.4-117.42c-1.6-2.97-2.37-6.2-2.37-9.4 0-5.72 2.47-11.34 7.1-15.21 7.68-6.43 18.94-6.13 26.26.69l44 41v-174.33c0-6.91 2.8-13.16 7.33-17.69 4.624-4.624 11.069-7.448 18.167-7.316 13.719.256 24.533 11.848 24.533 25.569v86.496c0-13.81 11.2-25.01 25.02-25.01 6.91 0 13.16 2.8 17.69 7.33 4.53 4.52 7.33 10.77 7.33 17.68 0-13.81 11.2-25.01 25.01-25.01 6.91 0 13.17 2.8 17.69 7.33 4.529 4.52 7.329 10.77 7.329 17.68z" fill="#ffcebf"/><g fill="#ffb09e"><path d="m304.915 494.302v-37.539l-50.96-47.39c-2.81-2.62-5.14-5.7-6.9-9.11l-60.4-117.42c-1.6-2.97-2.37-6.2-2.37-9.4 0-5.7 2.455-11.301 7.054-15.169-7.322-6.164-18.074-6.253-25.495-.041-4.63 3.87-7.1 9.49-7.1 15.21 0 3.2.77 6.43 2.37 9.4l60.4 117.42c1.76 3.41 4.09 6.49 6.9 9.11l50.96 47.39v37.539c0 4.84 3.942 8.753 8.781 8.719l23.757-.17c-3.988-.799-6.997-4.32-6.997-8.549z"/><path d="m247.125 299.924c8.019 0 14.52-6.501 14.52-14.52v-159.81c0-6.91 2.8-13.16 7.33-17.69 1.444-1.444 3.066-2.713 4.83-3.771-3.579-2.17-7.735-3.462-12.203-3.545-7.099-.132-13.543 2.692-18.167 7.316-4.53 4.53-7.33 10.78-7.33 17.69v174.33z"/></g></g></g><g><g><path d="m191.209 211.016c-1.505 0-3.024-.452-4.344-1.392-33.64-23.951-53.723-62.873-53.723-104.116 0-41.242 20.083-80.164 53.723-104.116 3.375-2.403 8.058-1.615 10.459 1.759 2.403 3.375 1.615 8.058-1.759 10.46-29.695 21.144-47.423 55.498-47.423 91.897 0 36.4 17.729 70.754 47.423 91.897 3.374 2.402 4.162 7.085 1.759 10.459-1.462 2.055-3.771 3.152-6.115 3.152z" fill="#d5efc8"/></g><g><path d="m372.462 157.848c-.933 0-1.879-.175-2.797-.544-3.843-1.545-5.705-5.913-4.159-9.757 5.373-13.36 8.098-27.505 8.098-42.039 0-36.399-17.729-70.754-47.424-91.897-3.374-2.402-4.161-7.085-1.759-10.46 2.401-3.374 7.083-4.162 10.46-1.759 33.64 23.952 53.723 62.874 53.723 104.116 0 16.461-3.089 32.488-9.182 47.637-1.176 2.924-3.989 4.703-6.96 4.703z" fill="#d5efc8"/></g></g><g><path d="m94.224 60.869c-2.009 0-4.013-.803-5.491-2.39l-16.31-17.519c-2.823-3.031-2.653-7.777.379-10.6 3.031-2.821 7.776-2.653 10.6.379l16.311 17.52c2.823 3.031 2.653 7.777-.379 10.6-1.446 1.344-3.28 2.01-5.11 2.01z" fill="#fef48b"/></g><g><path d="m77.911 162.961c-1.83 0-3.664-.666-5.109-2.011-3.031-2.822-3.201-7.568-.378-10.6l16.311-17.519c2.824-3.031 7.569-3.199 10.6-.379 3.031 2.822 3.201 7.568.378 10.6l-16.311 17.519c-1.478 1.587-3.482 2.39-5.491 2.39z" fill="#fef48b"/></g><g><path d="m94.223 100.135h-19.936c-4.142 0-7.5-3.357-7.5-7.5s3.358-7.5 7.5-7.5h19.936c4.142 0 7.5 3.357 7.5 7.5s-3.358 7.5-7.5 7.5z" fill="#fef48b"/></g></g></g></svg>